<svg width="237" height="65" viewBox="0 0 237 65" fill="none" xmlns="http://www.w3.org/2000/svg">
<path d="M66.7925 50.9182V20.2304H74.848V23.2992H70.6285V34.8071H74.0808V37.8759H70.6285V50.9182H66.7925ZM79.2594 34.7687V20.2304H83.0954V34.7687C83.0954 45.8547 83.0954 47.4658 85.0134 47.4658C86.9313 47.4658 86.9313 45.8547 86.9313 34.7687V20.2304H90.7673V34.7687C90.7673 47.0439 90.7673 51.3018 85.0134 51.3018C79.2594 51.3018 79.2594 47.0439 79.2594 34.7687ZM94.7951 23.6828V20.2304H106.303V23.6828H102.467V50.9182H98.6311V23.6828H94.7951ZM110.331 34.7687V20.2304H114.167V34.7687C114.167 45.8547 114.167 47.4658 116.085 47.4658C118.003 47.4658 118.003 45.8547 118.003 34.7687V20.2304H121.839V34.7687C121.839 47.0439 121.839 51.3018 116.085 51.3018C110.331 51.3018 110.331 47.0439 110.331 34.7687ZM127.401 50.9182V20.2304H133.615C137.566 20.2304 138.909 22.6471 138.909 27.2886C138.909 31.4698 138.41 33.8481 137.221 34.9989V35.2291C138.218 35.5743 138.525 37.3772 138.909 41.8653L139.676 50.9182H135.84L135.341 41.8653C135.073 37.3005 134.382 36.3415 133.232 36.3415H131.237V50.9182H127.401ZM131.237 33.2727H133.615C134.958 33.2727 135.341 31.9301 135.341 27.2886C135.341 24.2582 134.766 23.2992 133.615 23.2992H131.237V33.2727ZM144.471 34.7687V20.2304H148.307V34.7687C148.307 45.8547 148.307 47.4658 150.225 47.4658C152.143 47.4658 152.143 45.8547 152.143 34.7687V20.2304H155.979V34.7687C155.979 47.0439 155.979 51.3018 150.225 51.3018C144.471 51.3018 144.471 47.0439 144.471 34.7687ZM161.541 50.9182V20.2304H164.993L169.021 39.4103H169.405L173.433 20.2304H176.885V50.9182H173.049V35.5743L170.325 50.9182H168.024L165.377 35.5743V50.9182H161.541ZM192.612 34.7687C192.612 24.0664 192.843 19.8468 198.597 19.8468C204.351 19.8468 204.581 24.0664 204.581 34.7687C204.581 47.0439 204.351 51.3018 198.597 51.3018C192.843 51.3018 192.612 47.0439 192.612 34.7687ZM196.448 34.7687C196.448 45.8547 196.448 47.4658 198.597 47.4658C200.745 47.4658 200.745 45.8547 200.745 34.7687C200.745 24.7952 200.745 22.9156 198.597 22.9156C196.448 22.9156 196.448 24.7952 196.448 34.7687ZM209.951 50.9182V20.2304H213.403L218.429 39.0267L218.39 38.6431V20.2304H222.226V50.9182H218.774L213.749 34.0399L213.787 34.4235V50.9182H209.951ZM227.98 50.9182V20.2304H236.803V23.2992H231.816V33.2727H236.036V36.3415H231.816V47.0822H236.803V50.9182H227.98Z" fill="black"/>
<path d="M70.0685 59.6171C70.0685 59.895 70.0241 60.1534 69.9352 60.3924C69.8462 60.6313 69.7212 60.8383 69.56 61.0134C69.3989 61.1884 69.2016 61.326 68.9682 61.426C68.7348 61.5261 68.4764 61.5761 68.1929 61.5761H67.4177V63.8685H66.7925V57.6165H68.3096C68.6153 57.6165 68.8779 57.6679 69.0974 57.7707C69.3169 57.8735 69.4989 58.0138 69.6434 58.1917C69.7879 58.3695 69.8949 58.5807 69.9643 58.8252C70.0338 59.0697 70.0685 59.3337 70.0685 59.6171ZM69.435 59.6004C69.435 59.1503 69.3419 58.8043 69.1557 58.5626C68.9696 58.3209 68.6347 58.2 68.1512 58.2H67.4177V60.9675H68.0679C68.518 60.9675 68.8584 60.8508 69.089 60.6174C69.3197 60.384 69.435 60.045 69.435 59.6004ZM75.6955 63.8685L74.9786 63.8685L73.6699 61.3427H72.5862V63.8685H72.0277V57.6165H73.4615C74.0339 57.6165 74.4868 57.7804 74.8203 58.1083C75.1537 58.4362 75.3204 58.8863 75.3204 59.4587C75.3204 59.6365 75.2968 59.8172 75.2496 60.0006C75.2023 60.184 75.1342 60.3562 75.0453 60.5174C74.9564 60.6786 74.8466 60.8244 74.716 60.955C74.5854 61.0856 74.4368 61.1871 74.2701 61.2593L75.6955 63.8685ZM74.7286 59.417C74.7286 59.2225 74.6952 59.0475 74.6285 58.8919C74.5618 58.7363 74.4701 58.6043 74.3534 58.4959C74.2367 58.3875 74.0978 58.3042 73.9366 58.2458C73.7755 58.1875 73.6004 58.1583 73.4115 58.1583H72.5862V60.7675H73.4615C73.9061 60.7675 74.2284 60.648 74.4285 60.409C74.6285 60.1701 74.7286 59.8394 74.7286 59.417ZM78.1715 63.8685H77.5463V57.6165H78.1715V63.8685ZM84.157 57.6165L82.4565 63.8685H81.9813L80.2891 57.6165H80.881L82.2147 62.7515L83.5818 57.6165H84.157ZM88.8421 63.8685H88.2585L87.8167 62.0762H85.9995L85.5577 63.8685H84.9908L86.683 57.6165H87.1582L88.8421 63.8685ZM87.675 61.5177L86.9331 58.4251L86.1412 61.5177H87.675ZM93.0019 58.225H91.7099V63.8685H91.093V58.225H89.8009V57.6165H93.0019V58.225ZM97.9871 63.8685H94.8611V57.6165H97.9287V58.25H95.4363V60.4007H97.9121V60.9425H95.4363V63.2349H97.9871V63.8685ZM106.582 63.8685H105.998L105.557 62.0762H103.739L103.298 63.8685H102.731L104.423 57.6165H104.898L106.582 63.8685ZM105.415 61.5177L104.673 58.4251L103.881 61.5177H105.415ZM112.059 63.8685L111.342 63.8685L110.033 61.3427H108.95V63.8685H108.391V57.6165H109.825C110.397 57.6165 110.85 57.7804 111.184 58.1083C111.517 58.4362 111.684 58.8863 111.684 59.4587C111.684 59.6365 111.66 59.8172 111.613 60.0006C111.566 60.184 111.498 60.3562 111.409 60.5174C111.32 60.6786 111.21 60.8244 111.079 60.955C110.949 61.0856 110.8 61.1871 110.633 61.2593L112.059 63.8685ZM111.092 59.417C111.092 59.2225 111.059 59.0475 110.992 58.8919C110.925 58.7363 110.834 58.6043 110.717 58.4959C110.6 58.3875 110.461 58.3042 110.3 58.2458C110.139 58.1875 109.964 58.1583 109.775 58.1583H108.95V60.7675H109.825C110.269 60.7675 110.592 60.648 110.792 60.409C110.992 60.1701 111.092 59.8394 111.092 59.417ZM116.511 58.225H115.218V63.8685H114.602V58.225H113.31V57.6165H116.511V58.225ZM119.078 63.8685H118.453V57.6165H119.078V63.8685ZM124.105 58.2417H121.696V60.5341H124.063V61.1343H121.696V63.8685H121.071V57.6165H124.105V58.2417ZM126.614 63.8685H125.989V57.6165H126.614V63.8685ZM131.75 61.7011C131.744 62.0123 131.733 62.3041 131.716 62.5764C131.7 62.8487 131.643 63.0863 131.545 63.2891C131.448 63.492 131.294 63.6517 131.083 63.7684C130.872 63.8851 130.571 63.9435 130.182 63.9435C129.91 63.9435 129.679 63.9032 129.491 63.8226C129.302 63.742 129.149 63.6281 129.032 63.4808C128.915 63.3336 128.831 63.1557 128.778 62.9473C128.725 62.7389 128.699 62.5069 128.699 62.2513V59.2503C128.699 58.978 128.726 58.7363 128.782 58.5251C128.838 58.3139 128.928 58.1361 129.053 57.9916C129.178 57.8471 129.34 57.7387 129.541 57.6665C129.741 57.5942 129.985 57.5581 130.274 57.5581C130.624 57.5581 130.897 57.6178 131.091 57.7373C131.286 57.8568 131.431 58.0166 131.529 58.2167C131.626 58.4167 131.686 58.646 131.708 58.9044C131.73 59.1628 131.744 59.4309 131.75 59.7088H131.199C131.199 59.5254 131.198 59.3365 131.195 59.1419C131.192 58.9474 131.165 58.771 131.112 58.6126C131.059 58.4542 130.967 58.3236 130.837 58.2208C130.706 58.118 130.513 58.0666 130.257 58.0666C130.063 58.0666 129.9 58.0944 129.77 58.15C129.639 58.2055 129.536 58.2861 129.461 58.3917C129.386 58.4973 129.334 58.6223 129.303 58.7668C129.272 58.9113 129.257 59.0725 129.257 59.2503L129.274 62.293C129.274 62.4597 129.286 62.6111 129.311 62.7473C129.336 62.8834 129.382 63.0001 129.449 63.0974C129.516 63.1947 129.609 63.2697 129.728 63.3225C129.848 63.3753 129.999 63.4017 130.182 63.4017C130.466 63.4017 130.677 63.353 130.816 63.2558C130.955 63.1585 131.052 63.0293 131.108 62.8682C131.163 62.707 131.193 62.525 131.195 62.3221C131.198 62.1193 131.199 61.9123 131.199 61.7011H131.75ZM134.476 63.8685H133.85V57.6165H134.476V63.8685ZM140.186 63.8685H139.603L139.161 62.0762H137.343L136.902 63.8685H136.335L138.027 57.6165H138.502L140.186 63.8685ZM139.019 61.5177L138.277 58.4251L137.485 61.5177H139.019ZM144.538 63.8685H141.962V57.6165H142.545V63.2683H144.538V63.8685ZM149.79 63.8685H149.165V57.6165H149.79V63.8685ZM155.325 63.8685H154.675L152.508 58.9502V63.8685H151.907V57.6165H152.508L154.683 62.3263L154.733 57.6165H155.325V63.8685ZM160.452 58.225H159.16V63.8685H158.543V58.225H157.251V57.6165H160.452V58.225ZM165.437 63.8685H162.311V57.6165H165.379V58.25H162.886V60.4007H165.362V60.9425H162.886V63.2349H165.437V63.8685ZM169.997 63.8685H167.421V57.6165H168.005V63.2683H169.997V63.8685ZM174.44 63.8685H171.865V57.6165H172.448V63.2683H174.44V63.8685ZM176.933 63.8685H176.308V57.6165H176.933V63.8685ZM182.302 62.2513C182.302 62.8348 182.17 63.2627 181.906 63.535C181.642 63.8074 181.215 63.9435 180.626 63.9435C180.082 63.9435 179.683 63.7935 179.43 63.4934C179.177 63.1933 179.051 62.7793 179.051 62.2513V59.2503C179.051 58.6835 179.184 58.2598 179.451 57.9791C179.718 57.6984 180.137 57.5581 180.71 57.5581C181.26 57.5581 181.663 57.704 181.918 57.9958C182.174 58.2875 182.302 58.7001 182.302 59.2337V59.7505H181.71C181.71 59.5504 181.708 59.349 181.706 59.1461C181.703 58.9433 181.672 58.7627 181.614 58.6043C181.556 58.4459 181.456 58.3167 181.314 58.2167C181.172 58.1166 180.965 58.0666 180.693 58.0666C180.293 58.0666 180.016 58.1708 179.863 58.3792C179.711 58.5876 179.634 58.878 179.634 59.2503V62.2846C179.634 62.6459 179.708 62.9223 179.855 63.1141C180.002 63.3058 180.265 63.4017 180.643 63.4017C181.021 63.4017 181.296 63.3114 181.468 63.1307C181.64 62.9501 181.727 62.6764 181.727 62.3096V61.201L180.484 61.1926V60.6258L182.302 60.6341V62.2513ZM187.412 63.8685H184.286V57.6165H187.354V58.25H184.861V60.4007H187.337V60.9425H184.861V63.2349H187.412V63.8685ZM192.73 63.8685H192.08L189.913 58.9502V63.8685H189.313V57.6165H189.913L192.089 62.3263L192.139 57.6165H192.73V63.8685ZM197.666 61.7011C197.66 62.0123 197.649 62.3041 197.632 62.5764C197.616 62.8487 197.559 63.0863 197.461 63.2891C197.364 63.492 197.21 63.6517 196.999 63.7684C196.788 63.8851 196.487 63.9435 196.098 63.9435C195.826 63.9435 195.595 63.9032 195.407 63.8226C195.218 63.742 195.065 63.6281 194.948 63.4808C194.831 63.3336 194.747 63.1557 194.694 62.9473C194.641 62.7389 194.615 62.5069 194.615 62.2513V59.2503C194.615 58.978 194.642 58.7363 194.698 58.5251C194.754 58.3139 194.844 58.1361 194.969 57.9916C195.094 57.8471 195.256 57.7387 195.457 57.6665C195.657 57.5942 195.901 57.5581 196.19 57.5581C196.54 57.5581 196.813 57.6178 197.007 57.7373C197.202 57.8568 197.347 58.0166 197.445 58.2167C197.542 58.4167 197.602 58.646 197.624 58.9044C197.646 59.1628 197.66 59.4309 197.666 59.7088H197.115C197.115 59.5254 197.114 59.3365 197.111 59.1419C197.108 58.9474 197.081 58.771 197.028 58.6126C196.975 58.4542 196.883 58.3236 196.753 58.2208C196.622 58.118 196.429 58.0666 196.173 58.0666C195.979 58.0666 195.816 58.0944 195.686 58.15C195.555 58.2055 195.452 58.2861 195.377 58.3917C195.302 58.4973 195.25 58.6223 195.219 58.7668C195.188 58.9113 195.173 59.0725 195.173 59.2503L195.19 62.293C195.19 62.4597 195.202 62.6111 195.227 62.7473C195.252 62.8834 195.298 63.0001 195.365 63.0974C195.432 63.1947 195.525 63.2697 195.644 63.3225C195.764 63.3753 195.915 63.4017 196.098 63.4017C196.382 63.4017 196.593 63.353 196.732 63.2558C196.871 63.1585 196.968 63.0293 197.024 62.8682C197.079 62.707 197.109 62.525 197.111 62.3221C197.114 62.1193 197.115 61.9123 197.115 61.7011H197.666ZM202.801 63.8685H199.675V57.6165H202.742V58.25H200.25V60.4007H202.726V60.9425H200.25V63.2349H202.801V63.8685Z" fill="black"/>
<path d="M31.1955 61.7842L10.1945 49.9336C9.69099 49.6484 9.27293 49.239 8.98215 48.7464C8.69137 48.2538 8.53806 47.6953 8.53756 47.1266V23.435C8.53634 22.8647 8.68884 22.3041 8.9797 21.8097C9.27057 21.3153 9.68955 20.9044 10.1945 20.6184L31.1955 8.77739C31.7008 8.49235 32.274 8.34229 32.8574 8.34229C33.4408 8.34229 34.014 8.49235 34.5192 8.77739L55.5105 20.628C56.0154 20.914 56.4344 21.3249 56.7253 21.8193C57.0161 22.3137 57.1686 22.8743 57.1674 23.4446V47.1266C57.1686 47.6969 57.0161 48.2575 56.7253 48.7519C56.4344 49.2463 56.0154 49.6572 55.5105 49.9432L34.5192 61.7842C34.014 62.0692 33.4408 62.2193 32.8574 62.2193C32.274 62.2193 31.7008 62.0692 31.1955 61.7842Z" fill="black"/>
<path d="M28.7532 50.1945C29.1341 50.4009 29.391 50.7987 29.391 51.2543C29.391 51.9226 28.8362 52.4647 28.1523 52.4647C27.9191 52.4647 27.701 52.4016 27.5149 52.2919L23.0492 49.7696C22.458 49.4354 22.1976 48.9945 22.1976 48.3271V24.8764C22.1976 24.209 22.458 23.768 23.0492 23.4339L32.232 18.2477C32.4185 18.1381 32.6366 18.075 32.8698 18.075C33.5538 18.075 34.1085 18.617 34.1085 19.2853C34.1085 19.741 33.8506 20.1378 33.4698 20.3443L24.6756 25.3117V47.8914L28.7532 50.1945ZM26.9136 27.5414C26.9136 26.874 27.1734 26.433 27.7646 26.0989L36.7328 21.0337C37.0286 20.8667 37.307 20.7831 37.5854 20.7831C37.8638 20.7831 38.1422 20.8667 38.438 21.0337L42.6895 23.435C43.2811 23.7692 43.5425 24.2102 43.5415 24.8775L43.5361 29.9431C43.5361 30.5963 42.9848 31.154 42.295 31.154C42.0846 31.154 41.8719 31.1018 41.6771 30.9917L37.5853 28.6763L33.5063 30.9798C33.3202 31.0894 33.1021 31.1526 32.8689 31.1526C32.185 31.1526 31.6302 30.6105 31.6302 29.9422C31.6302 29.4865 31.8881 29.0897 32.2689 28.8832L36.7332 26.3618C37.029 26.1948 37.3074 26.1112 37.5858 26.1112C37.8643 26.1112 38.1426 26.1948 38.4384 26.3618L41.0641 27.8447V25.3128L37.5859 23.3482L29.3917 27.9766V32.6065C29.3917 33.2748 28.8369 33.8169 28.153 33.8169C27.469 33.8169 26.9142 33.2748 26.9142 32.6065L26.9136 27.5414ZM42.9022 34.2112C43.2831 34.4176 43.5404 34.8144 43.5404 35.2701C43.5404 35.9384 42.9857 36.4805 42.3017 36.4805C42.0685 36.4805 41.8504 36.4174 41.6639 36.3078L37.5848 34.0042L29.3906 38.6327V45.9263C29.3906 46.5946 28.8359 47.1367 28.1519 47.1367C27.4679 47.1367 26.9132 46.5946 26.9132 45.9263V38.1974C26.9132 37.53 27.1736 37.089 27.7652 36.7549L36.7334 31.6898C37.0293 31.5227 37.3076 31.4392 37.586 31.4392C37.8645 31.4392 38.1428 31.5227 38.4387 31.6898L42.9022 34.2112ZM37.5846 36.7237C38.2686 36.7237 38.8238 37.2667 38.8238 37.935C38.8238 38.3907 38.5659 38.7875 38.1851 38.994L34.107 41.2971V48.5907C34.107 49.2591 33.5522 49.8011 32.8683 49.8011C32.1843 49.8011 31.6295 49.2591 31.6295 48.5907V40.8613C31.6295 40.194 31.8899 39.753 32.4811 39.4188L36.9468 36.8965C37.1334 36.7868 37.3514 36.7237 37.5846 36.7237Z" fill="white"/>
</svg>
